<svg xmlns="http://www.w3.org/2000/svg" width="71" height="70.615" viewBox="0 0 71 70.615">
    <defs>
        <style>
            .cls-1,.cls-3,.cls-4{fill:none}.cls-2{fill:#d7f3d8}.cls-3,.cls-4{stroke:#1caba2;stroke-linecap:round}.cls-3{stroke-width:3px}.cls-4{stroke-width:2px}
        </style>
    </defs>
    <g id="ic_web_x_5" transform="translate(0 .479)">
        <path id="Rectangle_3525" d="M0 0h71v70H0z" class="cls-1" data-name="Rectangle 3525" transform="translate(0 .136)"/>
        <g id="Group_2416" data-name="Group 2416" transform="translate(4.245 1.021)">
            <ellipse id="Ellipse_134" cx="10.613" cy="9.906" class="cls-2" data-name="Ellipse 134" rx="10.613" ry="9.906" transform="translate(9.015 27.254)"/>
            <g id="Group_2399" data-name="Group 2399">
                <rect id="Rectangle_865" width="10.283" height="21.352" class="cls-3" data-name="Rectangle 865" rx="2.148" transform="translate(7.621 28.092)"/>
                <path id="Path_2349" d="M51.669 60.051h8.726a2.735 2.735 0 0 1 2.613 3.543 2.735 2.735 0 0 1-2.613 1.928H51.8" class="cls-3" data-name="Path 2349" transform="translate(-18.5 -26.753)"/>
                <path id="Path_2350" d="M33.6 52.835s4.547-1.608 6.289-5.09a39.5 39.5 0 0 0 2.679-7.436s8.708.6 3.417 11.053h8.389a3.289 3.289 0 0 1 3.006 4.648l-.38.978" class="cls-3" data-name="Path 2350" transform="translate(-15.697 -23.691)"/>
                <path id="Path_2351" d="M56.554 66.526h1.506a2.814 2.814 0 0 1 2.783 3.232 2.814 2.814 0 0 1-2.783 2.4h-5.811" class="cls-3" data-name="Path 2351" transform="translate(-18.59 -27.758)"/>
                <path id="Path_2352" d="M52.848 73.19h.1a2.607 2.607 0 0 1 2.573 3.024 2.607 2.607 0 0 1-2.573 2.19H38.4s-4.008.007-4.8-1.982" class="cls-3" data-name="Path 2352" transform="translate(-15.697 -28.792)"/>
                <g id="Group_2300" data-name="Group 2300" transform="translate(3.849 6.463)">
                    <path id="Path_2353" d="M79.068 30.71l2.218.389a.324.324 0 0 1 .163.557l-1.659 1.523a.325.325 0 0 0-.1.284l.31 2.229a.323.323 0 0 1-.479.327l-1.962-1.106a.321.321 0 0 0-.3-.008l-2.023.988a.324.324 0 0 1-.46-.355l.446-2.207a.324.324 0 0 0-.084-.289l-1.566-1.619a.324.324 0 0 1 .2-.547l2.236-.258a.323.323 0 0 0 .248-.17l1.056-1.989a.323.323 0 0 1 .58.017l.937 2.048a.325.325 0 0 0 .239.186z" class="cls-4" data-name="Path 2353" transform="translate(-25.733 -28.289)"/>
                    <path id="Path_2354" d="M64.938 30.71l2.218.389a.324.324 0 0 1 .163.557l-1.659 1.523a.325.325 0 0 0-.1.284l.315 2.229a.323.323 0 0 1-.479.327l-1.962-1.106a.321.321 0 0 0-.3-.008l-2.023.988a.324.324 0 0 1-.46-.355l.446-2.207a.322.322 0 0 0-.084-.289l-1.566-1.619a.324.324 0 0 1 .2-.547l2.236-.258a.323.323 0 0 0 .248-.17l1.056-1.989a.323.323 0 0 1 .58.017l.937 2.048a.325.325 0 0 0 .234.186z" class="cls-4" data-name="Path 2354" transform="translate(-23.541 -28.289)"/>
                    <path id="Path_2355" d="M50.808 30.71l2.218.389a.324.324 0 0 1 .163.557l-1.659 1.523a.327.327 0 0 0-.1.284l.315 2.229a.323.323 0 0 1-.479.327L49.3 34.913a.321.321 0 0 0-.3-.013l-2.023.988a.324.324 0 0 1-.46-.355l.446-2.207a.322.322 0 0 0-.084-.289l-1.566-1.619a.324.324 0 0 1 .2-.547l2.236-.258a.326.326 0 0 0 .249-.17l1.055-1.989a.323.323 0 0 1 .58.017l.937 2.048a.325.325 0 0 0 .238.191z" class="cls-4" data-name="Path 2355" transform="translate(-21.349 -28.289)"/>
                    <path id="Path_2356" d="M36.678 30.71l2.222.39a.323.323 0 0 1 .163.557L37.4 33.179a.327.327 0 0 0-.1.284l.315 2.229a.323.323 0 0 1-.479.327l-1.961-1.106a.323.323 0 0 0-.3-.008l-2.023.988a.324.324 0 0 1-.46-.355l.446-2.207a.322.322 0 0 0-.084-.289l-1.566-1.619a.324.324 0 0 1 .2-.547l2.236-.258a.326.326 0 0 0 .249-.17l1.055-1.989a.324.324 0 0 1 .58.017l.936 2.048a.325.325 0 0 0 .234.186z" class="cls-4" data-name="Path 2356" transform="translate(-19.157 -28.289)"/>
                    <path id="Path_2357" d="M22.548 30.71l2.218.389a.323.323 0 0 1 .163.557l-1.659 1.523a.327.327 0 0 0-.1.284l.315 2.229a.323.323 0 0 1-.479.327l-1.961-1.106a.323.323 0 0 0-.3-.008l-2.023.988a.324.324 0 0 1-.46-.355l.446-2.207a.322.322 0 0 0-.084-.289l-1.566-1.619a.324.324 0 0 1 .2-.547l2.236-.258a.326.326 0 0 0 .249-.17l1.055-1.989a.324.324 0 0 1 .58.017l.936 2.048a.325.325 0 0 0 .234.186z" class="cls-4" data-name="Path 2357" transform="translate(-16.965 -28.289)"/>
                </g>
                <path id="Path_2358" d="M34.418 41.382h-20.06a1.949 1.949 0 0 1-1.949-1.949V22.588a1.949 1.949 0 0 1 1.949-1.949h59.62a1.949 1.949 0 0 1 1.949 1.949v16.845a1.949 1.949 0 0 1-1.949 1.949h-8.992l-3.5 3.973a1.379 1.379 0 0 1-2 .068l-4.072-4.04H48.2" class="cls-3" data-name="Path 2358" transform="translate(-12.409 -20.639)"/>
            </g>
        </g>
    </g>
</svg>
