<svg xmlns="http://www.w3.org/2000/svg" width="48" height="48" viewBox="0 0 48 48">
    <defs>
        <style>
            .cls-1{fill:none}.cls-2{fill:#8cdd8f;opacity:.35}.cls-3{fill:#1caba2}.cls-4{fill:#41b7b3}
        </style>
    </defs>
    <g id="Group_1079" data-name="Group 1079" transform="translate(-1164.318 -721.386)">
        <path id="Rectangle_633" d="M0 0h48v48H0z" class="cls-1" data-name="Rectangle 633" transform="translate(1164.318 721.385)"/>
        <g id="Group_1080" data-name="Group 1080" transform="translate(2)">
            <path id="Path_833" d="M-19793.266 16428.463h40.23l-19.572 28.154z" class="cls-2" data-name="Path 833" transform="translate(20962 -15705.077)"/>
            <g id="Group_872" data-name="Group 872" transform="translate(1164.318 726.145)">
                <g id="Group_841" data-name="Group 841">
                    <path id="Path_725" d="M20.292 39.811a19.519 19.519 0 1 1 19.519-19.519 19.541 19.541 0 0 1-19.519 19.519zm0-36.293a16.775 16.775 0 1 0 16.775 16.774A16.792 16.792 0 0 0 20.292 3.518z" class="cls-3" data-name="Path 725" transform="translate(-.774 -.774)"/>
                </g>
                <g id="Group_842" data-name="Group 842" transform="translate(18.832 4.942)">
                    <path id="Path_726" d="M15.186 7.335a.685.685 0 0 1-.686-.686V5.062a.686.686 0 1 1 1.372 0v1.587a.684.684 0 0 1-.686.686z" class="cls-3" data-name="Path 726" transform="translate(-14.5 -4.376)"/>
                </g>
                <g id="Group_843" data-name="Group 843" transform="translate(11.887 6.802)">
                    <path id="Path_727" d="M10.918 8.48a.688.688 0 0 1-.594-.343L9.53 6.762a.685.685 0 1 1 1.187-.686l.8 1.375a.685.685 0 0 1-.251.936.676.676 0 0 1-.348.093z" class="cls-3" data-name="Path 727" transform="translate(-9.438 -5.732)"/>
                </g>
                <g id="Group_844" data-name="Group 844" transform="translate(6.804 11.886)">
                    <path id="Path_728" d="M7.794 11.6a.676.676 0 0 1-.343-.093l-1.375-.794a.685.685 0 1 1 .686-1.183l1.375.794a.686.686 0 0 1-.343 1.28z" class="cls-3" data-name="Path 728" transform="translate(-5.733 -9.437)"/>
                </g>
                <g id="Group_845" data-name="Group 845" transform="translate(4.942 18.832)">
                    <path id="Path_729" d="M6.649 15.872H5.062a.686.686 0 0 1 0-1.372h1.587a.686.686 0 0 1 0 1.372z" class="cls-3" data-name="Path 729" transform="translate(-4.376 -14.5)"/>
                </g>
                <g id="Group_846" data-name="Group 846" transform="translate(6.804 24.982)">
                    <path id="Path_730" d="M6.419 21.15a.686.686 0 0 1-.343-1.28l1.375-.793a.685.685 0 0 1 .686 1.187l-1.375.793a.679.679 0 0 1-.343.093z" class="cls-3" data-name="Path 730" transform="translate(-5.733 -18.982)"/>
                </g>
                <g id="Group_847" data-name="Group 847" transform="translate(11.887 29.487)">
                    <path id="Path_731" d="M10.124 25.013a.676.676 0 0 1-.343-.093.684.684 0 0 1-.251-.936l.794-1.375a.686.686 0 1 1 1.188.686l-.8 1.375a.684.684 0 0 1-.588.343z" class="cls-3" data-name="Path 731" transform="translate(-9.438 -22.266)"/>
                </g>
                <g id="Group_848" data-name="Group 848" transform="translate(18.832 31.135)">
                    <path id="Path_732" d="M15.186 26.426a.685.685 0 0 1-.686-.686v-1.587a.686.686 0 1 1 1.372 0v1.587a.684.684 0 0 1-.686.686z" class="cls-3" data-name="Path 732" transform="translate(-14.5 -23.467)"/>
                </g>
                <g id="Group_849" data-name="Group 849" transform="translate(24.983 29.486)">
                    <path id="Path_733" d="M20.463 25.013a.684.684 0 0 1-.594-.343l-.793-1.37a.685.685 0 1 1 1.187-.686l.794 1.375a.688.688 0 0 1-.594 1.029z" class="cls-3" data-name="Path 733" transform="translate(-18.984 -22.266)"/>
                </g>
                <g id="Group_850" data-name="Group 850" transform="translate(29.487 24.982)">
                    <path id="Path_734" d="M24.327 21.15a.679.679 0 0 1-.343-.093l-1.375-.793a.685.685 0 1 1 .686-1.187l1.375.793a.686.686 0 0 1-.343 1.28z" class="cls-3" data-name="Path 734" transform="translate(-22.266 -18.982)"/>
                </g>
                <g id="Group_851" data-name="Group 851" transform="translate(31.134 18.832)">
                    <path id="Path_735" d="M25.74 15.872h-1.587a.686.686 0 1 1 0-1.372h1.587a.686.686 0 1 1 0 1.372z" class="cls-3" data-name="Path 735" transform="translate(-23.467 -14.5)"/>
                </g>
                <g id="Group_852" data-name="Group 852" transform="translate(29.487 11.885)">
                    <path id="Path_736" d="M22.952 11.6a.686.686 0 0 1-.343-1.28l1.375-.794a.685.685 0 1 1 .686 1.187l-1.375.794a.676.676 0 0 1-.343.093z" class="cls-3" data-name="Path 736" transform="translate(-22.266 -9.437)"/>
                </g>
                <g id="Group_853" data-name="Group 853" transform="translate(24.983 6.802)">
                    <path id="Path_737" d="M19.67 8.48a.688.688 0 0 1-.594-1.029l.793-1.375a.686.686 0 1 1 1.188.686l-.794 1.375a.681.681 0 0 1-.593.343z" class="cls-3" data-name="Path 737" transform="translate(-18.984 -5.731)"/>
                </g>
                <g id="Group_854" data-name="Group 854" transform="translate(14.131 13.713)">
                    <path id="Path_738" d="M16.447 18.174l-4.716-2.883a1.372 1.372 0 1 1 1.431-2.342l3.313 2.025 6.839-4.016a1.372 1.372 0 1 1 1.386 2.367z" class="cls-4" data-name="Path 738" transform="translate(-11.074 -10.769)"/>
                </g>
            </g>
        </g>
    </g>
</svg>
