<svg xmlns="http://www.w3.org/2000/svg" width="48" height="48" viewBox="0 0 48 48">
    <defs>
        <style>
            .cls-1{fill:none}.cls-2{fill:#8cdd8f;opacity:.35}.cls-3{fill:#1caba2}.cls-4{fill:#41b7b3}
        </style>
    </defs>
    <g id="Group_1017" data-name="Group 1017" transform="translate(-869 -731)">
        <path id="Rectangle_632" d="M0 0h48v48H0z" class="cls-1" data-name="Rectangle 632" transform="translate(869 731)"/>
        <rect id="Rectangle_558" width="26" height="39" class="cls-2" data-name="Rectangle 558" rx="13" transform="rotate(-90 817.25 -59.25)"/>
        <g id="Group_827" data-name="Group 827" transform="translate(871 735.014)">
            <g id="Group_836" data-name="Group 836">
                <g id="Group_835" data-name="Group 835">
                    <g id="Group_834" data-name="Group 834">
                        <path id="Path_721" d="M20.826 40.418a3.794 3.794 0 0 1-2.82-1.257l-.625-.7a.946.946 0 0 0-1.075-.239l-.864.369a3.783 3.783 0 0 1-5.135-2.428l-.261-.888a.95.95 0 0 0-.875-.689l-.926-.037a3.789 3.789 0 0 1-3.579-4.416l.158-.919a.947.947 0 0 0-.484-.99l-.822-.44a3.792 3.792 0 0 1-1.311-5.53l.538-.761a.956.956 0 0 0-.011-1.112l-.55-.749A3.785 3.785 0 0 1 3.4 14.089l.811-.456a.937.937 0 0 0 .476-.994l-.172-.92a3.785 3.785 0 0 1 3.504-4.473l.933-.053a.932.932 0 0 0 .857-.693l.246-.9a3.795 3.795 0 0 1 5.1-2.506l.866.358A.947.947 0 0 0 17.1 3.2l.614-.7a3.784 3.784 0 0 1 5.676-.043l.619.695a.943.943 0 0 0 1.077.239l.865-.368a3.783 3.783 0 0 1 5.135 2.426l.259.891a.955.955 0 0 0 .878.686l.925.038a3.784 3.784 0 0 1 3.579 4.415l-.156.918a.94.94 0 0 0 .484.99l.822.442a3.793 3.793 0 0 1 1.308 5.531l-.537.76a.956.956 0 0 0 .011 1.111l.55.75a3.783 3.783 0 0 1-1.222 5.55l-.8.45a.942.942 0 0 0-.474 1l.17.915a3.789 3.789 0 0 1-3.506 4.476l-.937.051a.938.938 0 0 0-.854.693l-.246.9a3.8 3.8 0 0 1-5.1 2.506l-.868-.359a.943.943 0 0 0-1.078.256l-.611.7a3.78 3.78 0 0 1-2.812 1.3zM16.678 35.3a3.786 3.786 0 0 1 2.822 1.27l.618.693a.878.878 0 0 0 .717.314.919.919 0 0 0 .7-.325l.616-.707a3.791 3.791 0 0 1 4.3-1.011l.865.358a.929.929 0 0 0 .776-.026.946.946 0 0 0 .5-.607l.246-.9a3.77 3.77 0 0 1 3.442-2.781l.929-.05a.949.949 0 0 0 .874-1.119l-.17-.915a3.779 3.779 0 0 1 1.883-4l.808-.453a.923.923 0 0 0 .47-.619.947.947 0 0 0-.163-.77l-.55-.751a3.8 3.8 0 0 1-.038-4.423l.538-.763a.944.944 0 0 0 .149-.763.956.956 0 0 0-.483-.625l-.817-.44a3.773 3.773 0 0 1-1.945-3.973l.164-.914a.95.95 0 0 0-.9-1.1l-.929-.041a3.8 3.8 0 0 1-3.486-2.731l-.259-.892a.944.944 0 0 0-1.287-.607L26.206 6a3.771 3.771 0 0 1-4.314-.956l-.618-.695a.946.946 0 0 0-1.418.017l-.615.7a3.786 3.786 0 0 1-4.3 1.013l-.868-.359a.93.93 0 0 0-.776.027.949.949 0 0 0-.5.605l-.244.9A3.767 3.767 0 0 1 9.1 10.03l-.923.051a.945.945 0 0 0-.871 1.119l.17.918a3.775 3.775 0 0 1-1.885 4l-.81.453a.95.95 0 0 0-.469.629.931.931 0 0 0 .161.756l.553.756a3.8 3.8 0 0 1 .037 4.425l-.537.76a.935.935 0 0 0-.148.764.945.945 0 0 0 .482.625l.817.437a3.782 3.782 0 0 1 1.946 3.973l-.158.92a.95.95 0 0 0 .9 1.1l.929.037a3.792 3.792 0 0 1 3.484 2.731l.261.891a.931.931 0 0 0 .5.6.963.963 0 0 0 .785.013l.862-.369a3.786 3.786 0 0 1 1.492-.319z" class="cls-3" data-name="Path 721" transform="translate(-1.451 -1.192)"/>
                    </g>
                </g>
            </g>
            <g id="Group_839" data-name="Group 839" transform="translate(11.959 14.069)">
                <g id="Group_837" data-name="Group 837">
                    <path id="Path_722" d="M12.322 11.1a2.454 2.454 0 1 0 2.453 2.453 2.455 2.455 0 0 0-2.453-2.453z" class="cls-4" data-name="Path 722" transform="translate(-9.87 -11.097)"/>
                </g>
                <g id="Group_838" data-name="Group 838" transform="translate(9.66 6.175)">
                    <path id="Path_723" d="M19.125 15.444a2.452 2.452 0 1 0 2.452 2.456 2.456 2.456 0 0 0-2.452-2.456z" class="cls-4" data-name="Path 723" transform="translate(-16.671 -15.444)"/>
                </g>
            </g>
            <g id="Group_840" data-name="Group 840" transform="translate(12.818 12.216)">
                <path id="Path_724" d="M22.725 10.157a1.611 1.611 0 0 0-2.257.214l-9.626 11.6a1.6 1.6 0 0 0 1.236 2.626 1.493 1.493 0 0 0 .159-.009 1.586 1.586 0 0 0 1.08-.574l9.625-11.592a1.611 1.611 0 0 0-.216-2.263z" class="cls-3" data-name="Path 724" transform="translate(-10.475 -9.793)"/>
            </g>
        </g>
    </g>
</svg>
