<svg xmlns="http://www.w3.org/2000/svg" width="71" height="71.301" viewBox="0 0 71 71.301">
    <defs>
        <style>
            .cls-1,.cls-3,.cls-5{fill:none}.cls-2{fill:#d7f3d8}.cls-3,.cls-4,.cls-5{stroke:#1caba2;stroke-width:3px}.cls-4{fill:#fff}.cls-5{stroke-linecap:round}.cls-6{fill:#1caba2}
        </style>
    </defs>
    <g id="icic_web_x_2" transform="translate(.005 .365)">
        <path id="Rectangle_3522" d="M0 0h71v71H0z" class="cls-1" data-name="Rectangle 3522" transform="translate(-.005 -.063)"/>
        <g id="Group_2413" data-name="Group 2413" transform="translate(6.665 1.135)">
            <ellipse id="Ellipse_133" cx="15.566" cy="14.859" class="cls-2" data-name="Ellipse 133" rx="15.566" ry="14.859" transform="translate(24.311 39.032)"/>
            <g id="Group_2398" data-name="Group 2398">
                <path id="Path_2344" d="M61.526 63.57H27.535a2.959 2.959 0 0 1-3.146-2.729V15.5a2.959 2.959 0 0 1 3.146-2.729h27.206a2.456 2.456 0 0 1 1.6.576l7.661 6.646a1.846 1.846 0 0 1 .665 1.392v39.456a2.959 2.959 0 0 1-3.141 2.729z" class="cls-3" data-name="Path 2344" transform="translate(-18.043 -5.434)"/>
                <ellipse id="Ellipse_142" cx="11.041" cy="11.041" class="cls-4" data-name="Ellipse 142" rx="11.041" ry="11.041"/>
                <path id="Path_2345" d="M71.69 22.159h-6.8a1.307 1.307 0 0 1-1.307-1.307V14.27a.548.548 0 0 1 .93-.393l7.561 7.341a.548.548 0 0 1-.384.941z" class="cls-3" data-name="Path 2345" transform="translate(-26.414 -5.637)"/>
                <path id="Path_798" d="M32.192 56.508c.74.74 2.371 2.406 2.371 2.406l5.447-4.731" class="cls-5" data-name="Path 798" transform="translate(-19.71 -22.17)"/>
                <path id="Line_113" d="M0 0h12.861" class="cls-5" data-name="Line 113" transform="translate(27.278 34.254)"/>
                <path id="Path_798-2" d="M32.192 73.7c.74.739 2.371 2.4 2.371 2.4l5.447-4.731" class="cls-5" data-name="Path 798" transform="translate(-19.71 -27.122)"/>
                <path id="Line_114" d="M0 0h12.861" class="cls-5" data-name="Line 114" transform="translate(27.278 46.513)"/>
                <path id="Path_2346" d="M27.948 22.813l5.729-9.865a.311.311 0 0 0-.31-.464L29.556 13l.91-4.781a.155.155 0 0 0-.276-.119l-5.633 7.436a.311.311 0 0 0 .28.5l4.2-.442-1.378 7.116a.156.156 0 0 0 .289.103z" class="cls-6" data-name="Path 2346" transform="translate(-18.066 -4.423)"/>
            </g>
        </g>
    </g>
</svg>
