<svg xmlns="http://www.w3.org/2000/svg" width="75" height="76.086" viewBox="0 0 75 76.086">
    <defs>
        <style>
            .cls-1,.cls-3{fill:none}.cls-2{fill:#8cdd8f;opacity:.35}.cls-3{stroke:#1caba2;stroke-linecap:round;stroke-width:3px}
        </style>
    </defs>
    <g id="ic_web_x_3" transform="translate(-25.608 -1853.522)">
        <path id="Rectangle_3523" d="M0 0h75v75H0z" class="cls-1" data-name="Rectangle 3523" transform="translate(25.608 1854.608)"/>
        <g id="Group_2414" data-name="Group 2414" transform="translate(37.884 1855.022)">
            <path id="Rectangle_3516" d="M10.761 0a10.761 10.761 0 0 1 10.761 10.761v17.264H0V10.761A10.761 10.761 0 0 1 10.761 0z" class="cls-2" data-name="Rectangle 3516" transform="rotate(180 25.312 14.26)"/>
            <g id="Group_2395" data-name="Group 2395">
                <g id="Group_2289" data-name="Group 2289">
                    <g id="surface1" transform="translate(0 30.382)">
                        <path id="Path_2326" d="M17.009 63v6.6a3.081 3.081 0 0 0 1.948 2.876l2.639 1.06a.834.834 0 0 0 .3.058h.293a4.873 4.873 0 0 0 9.2 0h21.775a4.872 4.872 0 0 0 9.2 0H65.1a.815.815 0 0 0 .815-.815v-4.84a3.721 3.721 0 0 0-1.87-3.222 19.257 19.257 0 0 0-9.32-2.527l-2.794-1.524A27.7 27.7 0 0 0 38.7 57.3h-.961a27.446 27.446 0 0 0-11.355 2.445 27.822 27.822 0 0 0-3.137 1.662l-5.536.791a.816.816 0 0 0-.702.802z" class="cls-3" data-name="Path 2326" transform="translate(-17.009 -57.299)"/>
                    </g>
                    <ellipse id="Ellipse_133" cx="4.104" cy="4.104" class="cls-3" data-name="Ellipse 133" rx="4.104" ry="4.104" transform="translate(5.847 41.679)"/>
                    <ellipse id="Ellipse_134" cx="4.104" cy="4.104" class="cls-3" data-name="Ellipse 134" rx="4.104" ry="4.104" transform="translate(36.762 41.679)"/>
                    <path id="Path_2327" d="M48.5 26.044h16.759a2.151 2.151 0 0 1 2.151 2.151v26.1" class="cls-3" data-name="Path 2327" transform="translate(-25.161 -18.827)"/>
                    <path id="Line_78" d="M0 6.972V0" class="cls-3" data-name="Line 78" transform="translate(13.437 24.033)"/>
                    <path id="Line_79" d="M0 0h4.856" class="cls-3" data-name="Line 79" transform="translate(31.085 15.749)"/>
                    <path id="Line_80" d="M0 0h8.73" class="cls-3" data-name="Line 80" transform="translate(27.212 24.033)"/>
                    <ellipse id="Ellipse_135" cx="12.017" cy="12.017" class="cls-3" data-name="Ellipse 135" rx="12.017" ry="12.017" transform="translate(.309)"/>
                </g>
                <path id="Path_798" d="M26.818 31.4c.957.957 3.066 3.111 3.066 3.111l7.045-6.119" class="cls-3" data-name="Path 798" transform="translate(-19.548 -19.434)"/>
            </g>
        </g>
    </g>
</svg>
