<svg xmlns="http://www.w3.org/2000/svg" width="48" height="48" viewBox="0 0 48 48">
    <defs>
        <style>
            .cls-1{fill:none}.cls-2{fill:#8cdd8f;opacity:.35}.cls-3{fill:#1caba2}.cls-4{fill:#41b7b3}
        </style>
    </defs>
    <g id="Group_980" data-name="Group 980" transform="translate(-597.318 -731)">
        <path id="Rectangle_631" d="M0 0h48v48H0z" class="cls-1" data-name="Rectangle 631" transform="translate(597.318 731)"/>
        <g id="Group_1076" data-name="Group 1076" transform="translate(2 2)">
            <path id="Rectangle_557" d="M13 0a13 13 0 0 1 13 13v17H0V13A13 13 0 0 1 13 0z" class="cls-2" data-name="Rectangle 557" transform="rotate(180 319.5 379.5)"/>
            <g id="Group_863" data-name="Group 863" transform="translate(599.319 733)">
                <path id="Path_748" d="M37.026 28.9a15.3 15.3 0 0 0-2.915-1.253V9.062a2.759 2.759 0 0 0-2.757-2.756H19.793a9.991 9.991 0 1 0-9.179 14.676v3.343a21.558 21.558 0 0 0-2.29.874A21.833 21.833 0 0 0 6.1 26.361l-3.829.547a1.766 1.766 0 0 0-1.516 1.759V33.5a3.419 3.419 0 0 0 2.169 3.211l1.942.779.061.023a4.756 4.756 0 0 0 8.31.1h14.471a4.754 4.754 0 0 0 8.252 0h1.257a1.779 1.779 0 0 0 1.775-1.777v-3.545a3.925 3.925 0 0 0-1.966-3.391zM3.338 11.005a7.638 7.638 0 1 1 7.638 7.638 7.647 7.647 0 0 1-7.638-7.638zm9.633 9.795a9.952 9.952 0 0 0 7.713-12.137h10.67a.4.4 0 0 1 .4.4v18.008a15.244 15.244 0 0 0-1.837-.17l-1.8-.982A21.588 21.588 0 0 0 17.849 23.3h-.725a21.319 21.319 0 0 0-4.152.422zM9.235 37.613a1.833 1.833 0 1 1 1.833-1.833 1.834 1.834 0 0 1-1.833 1.833zm22.682 0a1.833 1.833 0 1 1 1.833-1.833 1.834 1.834 0 0 1-1.833 1.833zm4.718-2.352h-.579a4.168 4.168 0 0 0-8.277 0H13.373a4.173 4.173 0 0 0-8.255-.206l-1.318-.53a1.078 1.078 0 0 1-.684-1.016V29.17l3.8-.544.209-.128A19.583 19.583 0 0 1 9.3 27.347a18.85 18.85 0 0 1 7.827-1.689h.723a19.2 19.2 0 0 1 9.143 2.333l2.307 1.257h.292a13 13 0 0 1 6.264 1.7 1.561 1.561 0 0 1 .78 1.343z" class="cls-3" data-name="Path 748" transform="translate(-.755 -1.01)"/>
                <g id="Group_862" data-name="Group 862" transform="translate(4.408 5.438)">
                    <path id="Path_749" d="M18.867 11.946h3.563a1.179 1.179 0 1 0 0-2.357h-3.563a1.179 1.179 0 0 0 0 2.357z" class="cls-4" data-name="Path 749" transform="translate(.711 -3.472)"/>
                    <path id="Path_750" d="M23.161 14.1h-6.4a1.179 1.179 0 0 0 0 2.357h6.4a1.179 1.179 0 0 0 0-2.357z" class="cls-4" data-name="Path 750" transform="translate(-.021 -1.906)"/>
                    <path id="Path_751" d="M7.987 9.725L6.316 8.062l-2.288 2.294 3.759 3.766 7.862-6.573-2.07-2.5z" class="cls-4" data-name="Path 751" transform="translate(-4.028 -5.047)"/>
                </g>
            </g>
        </g>
    </g>
</svg>
