<svg xmlns="http://www.w3.org/2000/svg" width="48" height="48" viewBox="0 0 48 48">
    <defs>
        <style>
            .cls-1{fill:none}.cls-2{fill:#8cdd8f;opacity:.35}.cls-3{fill:#1caba2}
        </style>
    </defs>
    <g id="Group_1075" data-name="Group 1075" transform="translate(-306 -731)">
        <path id="Rectangle_630" d="M0 0h48v48H0z" class="cls-1" data-name="Rectangle 630" transform="translate(306 731)"/>
        <circle id="Ellipse_57" cx="16" cy="16" r="16" class="cls-2" data-name="Ellipse 57" transform="translate(321 731)"/>
        <g id="Group_897" data-name="Group 897" transform="translate(306 738)">
            <g id="Group_858" data-name="Group 858">
                <g id="Group_857" data-name="Group 857">
                    <path id="Path_741" d="M12.745 5.585h-.988a4.4 4.4 0 0 0-.825-1.792h1.813a.894.894 0 0 0 0-1.789H3.8a.894.894 0 1 0 0 1.789h3.578A2.678 2.678 0 0 1 9.9 5.585H3.8a.894.894 0 1 0 0 1.789h6.1a2.679 2.679 0 0 1-2.522 1.789H3.8a.847.847 0 0 0-.343.068.911.911 0 0 0-.485.482.9.9 0 0 0 .193.978l7.155 7.152a.894.894 0 1 0 1.266-1.263L5.96 10.952h1.418a4.478 4.478 0 0 0 4.379-3.578h.988a.894.894 0 0 0 0-1.789z" class="cls-3" data-name="Path 741" transform="translate(-2.904 -2.004)"/>
                </g>
            </g>
            <g id="Group_859" data-name="Group 859" transform="translate(13.381)">
                <path id="Path_742" d="M17.622 38.763c-6.922 0-12.556-8.273-12.556-18.443S10.7 1.878 17.622 1.878s12.555 8.274 12.555 18.442-5.632 18.443-12.555 18.443zm0-34.074c-5.373 0-9.745 7.012-9.745 15.631s4.372 15.631 9.745 15.631 9.744-7.012 9.744-15.631S23 4.689 17.622 4.689z" class="cls-3" data-name="Path 742" transform="translate(-5.066 -1.878)"/>
            </g>
        </g>
    </g>
</svg>
